<svg
   viewBox="0 0 265 265"
   version="1.1"
   fill="none"
   xmlns="http://www.w3.org/2000/svg">
  <rect
     style="fill:#9a4dff;"
     width="265"
     height="265"
     rx="12"
     x="0"
     y="0"/>
  <path
     style="fill:#533582"
     d="m 220.76594,193.31765 -4.10519,21.35488 -183.249806,-0.19385 20.312458,-154.49406 60.998728,-1.51e-4 24.87309,22.501357 24.39457,-22.501357 72.40254,0.781245 2.45812,-11.999168 -208.176332,-13.005533 -8.59373,189.477977 216.493742,-0.19578 4.34548,-31.97949"
     />
  <path
     d="m 130.12334,199.61342 q -13.43336,0 -25.83338,-2.89333 -12.19336,-3.10001 -20.666707,-8.88669 l 10.126683,-23.35337 q 5.166681,3.10001 11.160024,5.58001 6.20001,2.27334 12.60669,3.51334 6.61334,1.24 12.40002,1.24 8.06001,0 11.78002,-2.48 3.72,-2.48 3.72,-6.20001 0,-2.89334 -1.86,-4.34001 -1.86,-1.44667 -6.61334,-2.27334 l -18.39337,-3.1 q -12.81335,-2.06667 -19.840033,-9.09335 -6.820014,-7.23334 -6.820014,-17.77336 0,-9.50668 5.580004,-17.77336 5.786683,-8.26668 16.946703,-13.22669 11.36669,-5.166679 28.31338,-5.166679 6.20001,0 13.02002,1.239999 7.02668,1.03334 13.64003,3.30668 6.61334,2.27333 11.98668,5.99334 l -9.92001,22.94004 q -7.02668,-4.54668 -15.08669,-6.61335 -8.06002,-2.27333 -15.7067,-2.27333 -8.47334,0 -12.40002,2.68667 -3.92667,2.48 -3.92667,6.61334 0,2.27334 1.44667,3.92667 1.65333,1.65334 5.37334,2.27334 l 18.39336,2.89334 q 14.26003,2.48 21.28671,9.50668 7.02667,7.02668 7.02667,17.5667 0,11.78002 -5.99334,19.84003 -5.78668,8.06001 -16.53336,12.19335 -10.74668,4.13334 -25.21337,4.13334 z"
     style="fill:#533582"
     aria-label="s" />
</svg>
