<svg xmlns="http://www.w3.org/2000/svg" fill="none" viewBox="0 0 265 265">
  <rect width="265" height="265" fill="#9a4dff" rx="12"/>
  <path fill="#b08be1" stroke="#533582" stroke-miterlimit="20" stroke-width="27.7" d="M52.3 143.5h265.9v258.1H52.3z" paint-order="markers fill stroke" transform="matrix(.5524 0 0 .5314 53.9 13.5)"/>
  <path fill="#b08be1" stroke="#533582" stroke-miterlimit="20" stroke-width="44.8" d="M52.3 143.5h265.9v258.1H52.3z" paint-order="markers fill stroke" transform="matrix(.3589 0 0 .3125 16.7 101.7)"/>
  <path fill="#9a4dff" stroke="#533582" stroke-miterlimit="20" stroke-width="13.9" d="M82.1 141.9h1.1V166h-1.1zM154.9 90.9h1.1V115h-1.1z" paint-order="markers fill stroke"/>
  <path fill="#533582" d="M97.7 0h69.2v61.4H97.7z"/>
  <path fill="#9a4dff" stroke-linejoin="round" stroke-width="3.8" d="M132.5 52.6q-2.7 0-5.4-.8t-5-2.5q-2.3-1.7-3.7-4.3-1.5-2.6-1.7-6h9.8q.3 1.5 1 2.5.8 1.1 2.1 1.7 1.3.6 2.9.6 1.5 0 2.8-.4 1.3-.3 2.1-1.2.9-.8.9-2.4 0-1.3-.9-2-.8-.7-2.2-1-1.3-.5-2.8-.8l-5.5-1.1q-4-.8-6.6-4-2.5-3.2-2.6-8.7 0-4.3 2-7.4 2-3.1 5.3-4.7t7.4-1.6q4.9 0 8.3 1.7 3.3 1.7 5.1 4.8 1.8 3 1.9 7H138q-.1-1.6-.8-2.6-.7-1-1.9-1.5t-2.8-.5q-1.4 0-2.3.3-1 .3-1.5.8l-.8 1-.2 1.3q0 1.4.8 2.3.7 1 3 1.4l5.5 1.2q3.8.8 6 2.5 2.2 1.6 3.2 3.7 1 2.2 1.3 4.2.3 2.1.3 3.7 0 3.7-2 6.6-2 3-5.5 4.6-3.5 1.6-7.9 1.6z" aria-label="S"/>
</svg>
